<?xml version="1.0" encoding="UTF-8"?><svg id="b" xmlns="http://www.w3.org/2000/svg" viewBox="0 0 333.86 128.78"><defs><style>.d{fill:none;stroke:#231815;stroke-miterlimit:10;stroke-width:5px;}.e{fill:#e35c21;}.f{fill:#096cae;}.g{fill:#231815;}</style></defs><g id="c"><g><path class="f" d="M35.06,32.33l-4.54,4.1,4.46,4.18c1.82,1.68,2.74,3.7,2.74,6.05v15.26c0,.86-.43,1.3-1.3,1.3h-4.18c-.86,0-1.3-.43-1.3-1.3v-15.26c0-.53-.22-.98-.65-1.37l-5.54-5.11c-.34-.34-.74-.5-1.22-.5H12.53c-.96,0-1.44,.48-1.44,1.44v20.81c0,.86-.43,1.3-1.3,1.3H5.62c-.86,0-1.3-.43-1.3-1.3V10.08c0-.86,.43-1.3,1.3-1.3h4.1c.91,0,1.37,.43,1.37,1.3V31.82c0,.96,.48,1.44,1.44,1.44h11.02c.48,0,.91-.17,1.3-.5l5.47-5.11c.43-.38,.65-.84,.65-1.37v-4.39c0-.86,.43-1.3,1.3-1.3h4.18c.86,0,1.3,.43,1.3,1.3v4.39c0,2.35-.89,4.37-2.66,6.05Z"/><path class="g" d="M84.46,37.44v12.38c0,2.35-.89,4.37-2.66,6.05l-5.62,5.26c-1.54,1.39-3.38,2.09-5.54,2.09h-5.76c-2.16,0-4.01-.7-5.54-2.09l-5.62-5.26c-1.78-1.68-2.66-3.7-2.66-6.05v-12.38c0-2.4,.89-4.42,2.66-6.05l5.62-5.26c1.54-1.39,3.38-2.09,5.54-2.09h5.76c2.16,0,4.01,.7,5.54,2.09l5.62,5.26c1.78,1.63,2.66,3.65,2.66,6.05Zm-6.77,0c0-.58-.19-1.03-.58-1.37l-5.54-5.11c-.38-.34-.82-.5-1.3-.5h-5.04c-.48,0-.91,.17-1.3,.5l-5.47,5.11c-.43,.34-.65,.79-.65,1.37v12.38c0,.53,.22,.98,.65,1.37l5.47,5.11c.38,.34,.82,.5,1.3,.5h5.04c.48,0,.91-.17,1.3-.5l5.54-5.11c.38-.38,.58-.84,.58-1.37v-12.38Z"/><path class="g" d="M108.14,46.87c-1.87,0-3.46-.6-4.75-1.8l-4.75-4.46c-1.54-1.39-2.3-3.1-2.3-5.11s.77-3.79,2.3-5.18l4.75-4.46c1.3-1.2,2.88-1.8,4.75-1.8h18.86c.91,0,1.37,.43,1.37,1.3v3.82c0,.86-.46,1.3-1.37,1.3h-18.65c-.14,0-.29,.07-.43,.22l-4.61,4.25c-.14,.14-.22,.34-.22,.58,0,.19,.07,.38,.22,.58l4.54,4.18c.14,.14,.31,.22,.5,.22h9.65c1.82,0,3.38,.6,4.68,1.8l4.82,4.46c1.54,1.39,2.3,3.07,2.3,5.04,0,2.06-.77,3.79-2.3,5.18l-4.82,4.46c-1.3,1.2-2.86,1.8-4.68,1.8h-18.94c-.86,0-1.3-.43-1.3-1.3v-3.89c0-.82,.43-1.22,1.3-1.22h18.65c.19,0,.36-.07,.5-.22l4.61-4.25c.14-.14,.22-.33,.22-.58s-.07-.43-.22-.58l-4.54-4.18c-.14-.1-.31-.14-.5-.14h-9.65Z"/><path class="g" d="M149.54,46.87c-.72,0-1.08,.36-1.08,1.08v1.87c0,.53,.22,.98,.65,1.37l5.47,5.11c.33,.34,.77,.5,1.3,.5h14.76c.86,0,1.3,.43,1.3,1.3v3.82c0,.86-.43,1.3-1.3,1.3h-15.12c-2.16,0-4.01-.7-5.54-2.09l-5.62-5.26c-1.78-1.63-2.66-3.65-2.66-6.05v-12.38c0-2.35,.89-4.37,2.66-6.05l5.62-5.26c1.54-1.39,3.38-2.09,5.54-2.09h15.12c.86,0,1.3,.43,1.3,1.3v3.89c0,.82-.43,1.22-1.3,1.22h-14.76c-.53,0-.96,.17-1.3,.5l-5.47,5.11c-.43,.38-.65,.84-.65,1.37v1.94c0,.72,.36,1.08,1.08,1.08h21.1c.86,0,1.3,.43,1.3,1.3v3.82c0,.86-.43,1.3-1.3,1.3h-21.1Z"/><path class="g" d="M217.94,61.92c0,.86-.43,1.3-1.3,1.3h-4.18c-.86,0-1.3-.43-1.3-1.3v-24.51c0-.53-.21-.98-.62-1.37l-5.5-5.08c-.38-.34-.81-.51-1.29-.51h-5.03c-.53,0-.96,.18-1.29,.52l-5.56,5.1c-.39,.34-.58,.79-.58,1.37v24.47c0,.86-.43,1.3-1.3,1.3h-4.18c-.86,0-1.3-.43-1.3-1.3v-24.48c0-2.4,.89-4.42,2.66-6.05l5.62-5.26c1.54-1.39,3.38-2.09,5.54-2.09h5.76c2.16,0,3.98,.7,5.47,2.09l5.69,5.26c1.77,1.63,2.66,3.65,2.66,6.05v24.48Z"/><path class="e" d="M31.82,72.05c.86,0,1.3,.43,1.3,1.3v3.89c0,.82-.43,1.22-1.3,1.22h-14.76c-.53,0-.96,.17-1.3,.5l-5.47,5.11c-.43,.38-.65,.84-.65,1.37v12.38c0,.58,.22,1.03,.65,1.37l5.47,5.11c.33,.34,.77,.5,1.3,.5h14.76c.86,0,1.3,.43,1.3,1.3v3.82c0,.86-.43,1.3-1.3,1.3h-15.12c-2.16,0-4.01-.7-5.54-2.09l-5.62-5.26c-1.78-1.63-2.66-3.65-2.66-6.05v-12.38c0-2.35,.89-4.37,2.66-6.05l5.62-5.26c1.54-1.39,3.38-2.09,5.54-2.09h15.12Z"/><path class="g" d="M79.2,83.5v26.28c0,.96-.48,1.44-1.44,1.44h-20.38c-1.82,0-3.36-.6-4.61-1.8l-4.75-4.32c-1.49-1.39-2.23-3.1-2.23-5.11v-1.73c0-2.02,.74-3.72,2.23-5.11l4.75-4.32c1.25-1.2,2.78-1.8,4.61-1.8h15.05v-3.53c0-.24-.07-.43-.22-.58l-4.54-4.25c-.14-.14-.31-.22-.5-.22h-18.65c-.86,0-1.3-.41-1.3-1.22v-3.89c0-.86,.43-1.3,1.3-1.3h18.86c1.87,0,3.46,.6,4.75,1.8l4.75,4.46c1.54,1.39,2.3,3.12,2.3,5.18Zm-6.77,11.38c0-.96-.48-1.44-1.44-1.44h-13.18c-.24,0-.46,.1-.65,.29l-4.32,3.96c-.19,.24-.29,.5-.29,.79v1.37c0,.29,.1,.53,.29,.72l4.32,4.03c.19,.14,.41,.22,.65,.22h13.18c.96,0,1.44-.48,1.44-1.44v-8.5Z"/><path class="g" d="M103.61,58.08v51.84c0,.86-.43,1.3-1.3,1.3h-4.18c-.86,0-1.3-.43-1.3-1.3V63.26h-3.02c-.86,0-1.3-.43-1.3-1.3v-3.82c0-.91,.43-1.37,1.3-1.37h8.5c.86,0,1.3,.43,1.3,1.3Z"/><path class="g" d="M125.42,94.87c-.72,0-1.08,.36-1.08,1.08v1.87c0,.53,.22,.98,.65,1.37l5.47,5.11c.33,.34,.77,.5,1.3,.5h14.76c.86,0,1.3,.43,1.3,1.3v3.82c0,.86-.43,1.3-1.3,1.3h-15.12c-2.16,0-4.01-.7-5.54-2.09l-5.62-5.26c-1.78-1.63-2.66-3.65-2.66-6.05v-12.38c0-2.35,.89-4.37,2.66-6.05l5.62-5.26c1.54-1.39,3.38-2.09,5.54-2.09h15.12c.86,0,1.3,.43,1.3,1.3v3.89c0,.82-.43,1.22-1.3,1.22h-14.76c-.53,0-.96,.17-1.3,.5l-5.47,5.11c-.43,.38-.65,.84-.65,1.37v1.94c0,.72,.36,1.08,1.08,1.08h21.1c.86,0,1.3,.43,1.3,1.3v3.82c0,.86-.43,1.3-1.3,1.3h-21.1Z"/><path class="g" d="M193.82,109.92c0,.86-.43,1.3-1.3,1.3h-4.18c-.86,0-1.3-.43-1.3-1.3v-24.51c0-.53-.21-.98-.62-1.37l-5.5-5.08c-.38-.34-.81-.51-1.29-.51h-5.03c-.53,0-.96,.18-1.29,.52l-5.56,5.1c-.39,.34-.58,.79-.58,1.37v24.47c0,.86-.43,1.3-1.3,1.3h-4.18c-.86,0-1.3-.43-1.3-1.3v-24.48c0-2.4,.89-4.42,2.66-6.05l5.62-5.26c1.54-1.39,3.38-2.09,5.54-2.09h5.76c2.16,0,3.98,.7,5.47,2.09l5.69,5.26c1.77,1.63,2.66,3.65,2.66,6.05v24.48Z"/><path class="g" d="M209.88,79.39l5.62-5.26c1.54-1.39,3.38-2.09,5.54-2.09h12.82v-13.97c0-.86,.43-1.3,1.3-1.3h4.18c.86,0,1.3,.43,1.3,1.3v51.84c0,.86-.43,1.3-1.3,1.3h-18.29c-2.16,0-4.01-.7-5.54-2.09l-5.62-5.26c-1.78-1.63-2.66-3.65-2.66-6.05v-12.38c0-2.35,.89-4.37,2.66-6.05Zm4.1,18.43c0,.58,.22,1.03,.65,1.37l5.47,5.11c.38,.34,.82,.5,1.3,.5h11.02c.96,0,1.44-.48,1.44-1.44v-23.47c0-.96-.48-1.44-1.44-1.44h-11.02c-.48,0-.91,.17-1.3,.5l-5.47,5.11c-.43,.38-.65,.84-.65,1.37v12.38Z"/><path class="g" d="M288.07,83.5v26.28c0,.96-.48,1.44-1.44,1.44h-20.38c-1.82,0-3.36-.6-4.61-1.8l-4.75-4.32c-1.49-1.39-2.23-3.1-2.23-5.11v-1.73c0-2.02,.74-3.72,2.23-5.11l4.75-4.32c1.25-1.2,2.78-1.8,4.61-1.8h15.05v-3.53c0-.24-.07-.43-.22-.58l-4.54-4.25c-.14-.14-.31-.22-.5-.22h-18.65c-.86,0-1.3-.41-1.3-1.22v-3.89c0-.86,.43-1.3,1.3-1.3h18.86c1.87,0,3.46,.6,4.75,1.8l4.75,4.46c1.54,1.39,2.3,3.12,2.3,5.18Zm-6.77,11.38c0-.96-.48-1.44-1.44-1.44h-13.18c-.24,0-.46,.1-.65,.29l-4.32,3.96c-.19,.24-.29,.5-.29,.79v1.37c0,.29,.1,.53,.29,.72l4.32,4.03c.19,.14,.41,.22,.65,.22h13.18c.96,0,1.44-.48,1.44-1.44v-8.5Z"/><path class="g" d="M324.86,73.34v3.82c0,.86-.43,1.3-1.3,1.3h-7.42c-.48,0-.89,.17-1.22,.5l-5.54,5.11c-.38,.34-.58,.79-.58,1.37v24.48c0,.86-.46,1.3-1.37,1.3h-4.1c-.86,0-1.3-.43-1.3-1.3v-36.58c0-.86,.43-1.3,1.3-1.3h4.1c.91,0,1.37,.43,1.37,1.3v2.23l1.51-1.44c1.54-1.39,3.38-2.09,5.54-2.09h7.7c.86,0,1.3,.43,1.3,1.3Z"/></g><g><path class="d" d="M306.82,60.69h-34.87c-2.92-2.92-4.55-4.55-7.47-7.47V18.34c2.92-2.92,4.55-4.55,7.47-7.47h34.87c2.92,2.92,4.55,4.55,7.47,7.47V53.21c-2.92,2.92-4.55,4.55-7.47,7.47Z"/><g><line class="d" x1="289.49" y1="20.11" x2="289.49" y2="38.83"/><line class="d" x1="287.36" y1="37.41" x2="303.78" y2="37.41"/></g></g></g></svg>